PathFileType	4	(X/Y/Z)	subject01_static.trc
DataRate	CameraRate	NumFrames	NumMarkers	Units	OrigDataRate	OrigDataStartFrame	OrigNumFrames
60.00	60.00	       5	49	mm	60.00	113	       300
Frame#	Time	R.ASIS			L.ASIS			V.Sacral			R.Thigh.Upper			R.Thigh.Front			R.Thigh.Rear			L.Thigh.Upper			L.Thigh.Front			L.Thigh.Rear			R.Knee.Lat			R.Knee.Med			L.Knee.Lat			L.Knee.Med			R.Shank.Upper			R.Shank.Front			R.Shank.Rear			L.Shank.Upper			L.Shank.Front			L.Shank.Rear			R.Ankle.Lat			R.Ankle.Med			L.Ankle.Lat			L.Ankle.Med			R.Heel			R.Midfoot.Sup			R.Midfoot.Lat			R.Toe.Tip			L.Heel			L.Midfoot.Sup			L.Midfoot.Lat			L.Toe.Tip			Sternum			R.Acromium			L.Acromium			R.Bicep			L.Bicep			R.Elbow			L.Elbow			R.Wrist.Med			R.Wrist.Lat			L.Wrist.Med			L.Wrist.Lat			R.Toe.Lat			R.Toe.Med			L.Toe.Lat			L.Toe.Med			R.Temple			L.Temple			Top.Head			
		X1	Y1	Z1	X2	Y2	Z2	X3	Y3	Z3	X4	Y4	Z4	X5	Y5	Z5	X6	Y6	Z6	X7	Y7	Z7	X8	Y8	Z8	X9	Y9	Z9	X10	Y10	Z10	X11	Y11	Z11	X12	Y12	Z12	X13	Y13	Z13	X14	Y14	Z14	X15	Y15	Z15	X16	Y16	Z16	X17	Y17	Z17	X18	Y18	Z18	X19	Y19	Z19	X20	Y20	Z20	X21	Y21	Z21	X22	Y22	Z22	X23	Y23	Z23	X24	Y24	Z24	X25	Y25	Z25	X26	Y26	Z26	X27	Y27	Z27	X28	Y28	Z28	X29	Y29	Z29	X30	Y30	Z30	X31	Y31	Z31	X32	Y32	Z32	X33	Y33	Z33	X34	Y34	Z34	X35	Y35	Z35	X36	Y36	Z36	X37	Y37	Z37	X38	Y38	Z38	X39	Y39	Z39	X40	Y40	Z40	X41	Y41	Z41	X42	Y42	Z42	X43	Y43	Z43	X44	Y44	Z44	X45	Y45	Z45	X46	Y46	Z46	X47	Y47	Z47	X48	Y48	Z48	X49	Y49	Z49	

113	1.867000	605.542600	1073.028080	157.811450	607.129940	1060.703610	-104.160660	408.092290	1079.603760	36.266820	542.992190	756.786250	224.299530	593.332150	682.059020	134.102390	522.192320	637.008480	226.645680	515.533020	768.098390	-167.998540	604.491210	718.685910	-111.735500	504.751130	658.992800	-160.317120	475.638730	553.519840	217.077770	469.170350	525.435180	98.422980	476.680390	528.625550	-150.111080	498.789760	519.825260	-36.231350	441.184420	469.200740	236.358230	513.366030	424.065890	184.363430	452.890170	384.069030	253.273330	467.655360	450.392460	-170.645420	516.964360	393.330810	-127.754330	445.911040	409.506990	-181.288830	437.651000	98.105440	255.569550	444.063630	103.527850	165.114820	442.973880	93.640570	-172.212040	464.973330	109.006630	-81.774040	366.578030	70.653000	210.264800	507.364720	80.330500	164.922500	509.433320	63.674440	272.958890	657.180730	50.654610	195.348820	371.350100	75.429340	-115.716450	544.812990	77.038730	-94.775080	523.915530	66.148360	-191.757830	654.562130	48.540280	-127.373880	605.332890	1425.662840	23.993950	487.205020	1550.166990	194.186770	485.856320	1561.461670	-147.415830	523.000180	1504.354860	358.469420	529.920780	1507.974490	-325.495730	518.376830	1471.876950	462.048370	494.604340	1475.988400	-426.381770	671.140870	1466.785890	686.566830	610.704770	1474.849850	711.319210	624.379820	1443.331540	-644.259520	551.833740	1447.296750	-663.838620	599.728580	39.649650	276.700230	594.270510	49.330630	167.952650	585.345090	39.916630	-201.712390	605.893010	51.582350	-101.083390	606.785580	1655.373660	126.753000	665.911070	1645.347660	1.292270	588.821530	1814.638060	31.163130	
114	1.883000	605.517210	1073.034670	157.816270	607.102170	1060.714970	-104.192520	408.054630	1079.587520	36.180320	543.164250	756.774720	224.275100	593.341490	682.040530	134.084610	522.195500	636.996700	226.649920	515.511350	768.043520	-168.009000	604.552000	718.726560	-111.689220	504.753600	659.007260	-160.328660	475.704500	553.533330	217.077300	469.172520	525.439210	98.419510	476.716340	528.612430	-150.147080	498.787200	519.827510	-36.230330	441.187230	469.143710	236.341230	513.354130	424.044430	184.385700	452.945770	384.026820	253.286670	467.651820	450.397370	-170.655410	516.957030	393.336090	-127.761180	445.947630	409.548800	-181.286610	437.641570	98.103740	255.549330	444.039060	103.518600	165.088990	442.973880	93.640570	-172.212040	464.987150	109.067270	-81.742960	366.578090	70.652980	210.264820	507.373500	80.372300	164.933320	509.434780	63.681370	272.963010	657.180420	50.654560	195.348530	371.238310	75.539090	-115.675840	544.812990	77.038730	-94.775080	523.766910	66.083020	-191.800920	654.509890	48.494060	-127.426930	605.221560	1425.603390	24.031240	487.256380	1550.126590	194.225590	485.788360	1561.454710	-147.390520	523.162350	1504.298100	358.529360	529.682980	1508.007930	-325.417850	518.555600	1471.814090	462.077180	494.467070	1475.834110	-426.322080	671.246150	1466.633540	686.503540	610.604000	1474.586790	711.324340	624.352910	1443.268920	-644.239200	551.789250	1447.235840	-663.711240	599.908390	39.621250	276.719150	594.208920	49.202850	168.016880	585.345090	39.916630	-201.712390	605.880550	51.601580	-101.074390	606.813960	1655.366940	126.754960	665.911440	1645.347530	1.292500	588.853330	1814.633790	31.254270	
115	1.900000	605.514530	1073.023190	157.814000	607.064030	1060.720700	-104.219730	408.007110	1079.575320	36.113900	543.238830	756.737000	224.229570	593.341670	682.016970	134.071210	522.200500	636.977420	226.658020	515.523990	768.032650	-168.027130	604.572510	718.762450	-111.680670	504.761020	659.012330	-160.365940	475.749360	553.554990	217.074080	469.180630	525.419490	98.435270	476.769100	528.598820	-150.168880	498.789760	519.825260	-36.231330	441.192170	469.097050	236.331920	513.341490	424.021510	184.382570	452.993840	383.978360	253.302200	467.653660	450.398220	-170.657580	516.949040	393.345460	-127.770160	445.932130	409.593140	-181.270890	437.645110	98.104330	255.555910	444.024380	103.507870	165.058140	442.973880	93.640570	-172.212040	464.997070	109.110900	-81.720600	366.589360	70.649320	210.267000	507.356930	80.384490	164.933270	509.421880	63.706910	272.950780	657.164980	50.651940	195.333720	371.193600	75.603390	-115.675030	544.812990	77.038730	-94.775080	523.599550	66.030380	-191.845050	654.441040	48.450210	-127.492270	605.154660	1425.566890	24.053870	487.317290	1550.079350	194.257810	485.702120	1561.459840	-147.367690	523.327580	1504.250120	358.581090	529.554260	1508.002440	-325.367890	518.803280	1471.709350	462.125760	494.312010	1475.675050	-426.240630	671.438290	1466.523190	686.407470	610.855160	1474.398190	711.293580	624.293520	1443.192990	-644.193180	551.707340	1447.146610	-663.489990	600.060240	39.587410	276.725860	594.100520	49.066110	168.066380	585.345090	39.916630	-201.712390	605.874450	51.609640	-101.074430	606.821530	1655.364140	126.756700	665.906010	1645.344360	1.283820	588.883790	1814.623050	31.329870	
116	1.917000	605.524540	1072.992800	157.799840	607.015320	1060.720950	-104.256610	407.949250	1079.566530	36.080930	543.245120	756.692930	224.182020	593.338560	681.998600	134.063340	522.205990	636.960330	226.665830	515.543580	768.055050	-168.040680	604.541140	718.787900	-111.718230	504.768650	659.019590	-160.430470	475.770480	553.571660	217.071030	469.207340	525.399230	98.456110	476.808530	528.590450	-150.164220	498.792330	519.822940	-36.232350	441.236910	469.075230	236.322780	513.336790	424.013550	184.354110	453.030730	383.956760	253.309200	467.647670	450.398830	-170.649570	516.940980	393.362060	-127.774390	445.844270	409.639130	-181.232420	437.663880	98.107600	255.593550	444.033720	103.517940	165.032730	442.973880	93.640570	-172.212040	465.000240	109.124860	-81.713450	366.610630	70.642420	210.271130	507.352260	80.389140	164.932680	509.392790	63.743390	272.924500	657.122250	50.644680	195.292680	371.232600	75.639280	-115.650550	544.812990	77.038730	-94.775080	523.542420	66.050370	-191.848270	654.395810	48.441020	-127.529330	605.123660	1425.548950	24.060850	487.372620	1550.033080	194.278320	485.621490	1561.468990	-147.354080	523.474490	1504.203980	358.620360	529.604310	1507.940430	-325.385380	519.047670	1471.590820	462.206510	494.143650	1475.555180	-426.147740	671.726810	1466.416630	686.296200	611.434390	1474.309080	711.242920	624.157840	1443.103880	-644.108340	551.557010	1447.040530	-663.173890	600.147400	39.562470	276.724330	593.933170	48.917900	168.100020	585.345090	39.916630	-201.712390	605.876220	51.608920	-101.069370	606.824340	1655.364380	126.757610	665.890750	1645.335690	1.260420	588.911070	1814.606570	31.382440	
117	1.933000	605.531560	1072.955690	157.780040	606.957460	1060.717160	-104.314640	407.876590	1079.562990	36.075240	543.225040	756.661130	224.149520	593.335820	681.989070	134.060440	522.213870	636.954220	226.668990	515.562070	768.092040	-168.048890	604.467220	718.792790	-111.789900	504.763520	659.043640	-160.500560	475.773770	553.578250	217.069630	469.246220	525.396360	98.467400	476.812260	528.591610	-150.142700	498.789730	519.825260	-36.231370	441.334500	469.077360	236.305630	513.339290	424.021060	184.305210	453.074830	383.976010	253.302810	467.631840	450.399200	-170.637730	516.935550	393.383940	-127.773890	445.723140	409.697810	-181.178730	437.685180	98.111250	255.634890	444.046260	103.548400	165.015240	442.973880	93.640570	-172.212040	464.997070	109.110910	-81.720590	366.635010	70.634510	210.275860	507.361540	80.393950	164.935040	509.356290	63.771620	272.895390	657.047490	50.632000	195.220950	371.296570	75.663380	-115.630810	544.812990	77.038730	-94.775080	523.617130	66.135700	-191.808520	654.394470	48.471630	-127.520590	605.102600	1425.536130	24.054830	487.421540	1549.989380	194.288570	485.561000	1561.465210	-147.350330	523.591430	1504.140630	358.645260	529.774780	1507.837040	-325.459630	519.217530	1471.492430	462.329680	493.966400	1475.498290	-426.060460	672.145690	1466.336300	686.162540	612.144100	1474.309080	711.198240	623.928220	1443.007080	-643.993770	551.324280	1446.952150	-662.855350	600.184690	39.549810	276.721890	593.717710	48.757050	168.123060	585.345090	39.916630	-201.712390	605.884640	51.604790	-101.047180	606.843690	1655.367680	126.757500	665.864140	1645.320680	1.220720	588.938660	1814.589360	31.408950	
